<svg width="24" height="24" viewBox="0 0 24 24" fill="none" xmlns="http://www.w3.org/2000/svg">
<path d="M10.155 14.773L10.146 14.752C10.0108 14.715 9.87677 14.674 9.74403 14.629L9.73403 14.625C8.35259 14.1523 7.15351 13.2596 6.30465 12.0716C5.45579 10.8837 4.99963 9.46004 5.00003 7.99998C4.99958 6.20809 5.68633 4.48425 6.91882 3.18354C8.15131 1.88283 9.83568 1.10429 11.625 1.00829C13.4143 0.912289 15.1723 1.50613 16.5369 2.6675C17.9015 3.82887 18.7687 5.46933 18.96 7.25098C19.004 7.66298 18.664 7.99998 18.25 7.99998C17.836 7.99998 17.505 7.66198 17.45 7.25198C17.317 6.28425 16.9287 5.36939 16.325 4.60142C15.7214 3.83346 14.9241 3.24009 14.0151 2.8823C13.1062 2.52452 12.1184 2.41521 11.1532 2.56563C10.188 2.71605 9.2803 3.12076 8.52333 3.73816C7.76636 4.35557 7.18745 5.16341 6.84609 6.07865C6.50473 6.99389 6.41323 7.98352 6.58101 8.94584C6.74878 9.90815 7.16977 10.8084 7.80071 11.5542C8.43165 12.2999 9.24979 12.8642 10.171 13.189C10.3566 12.7695 10.6807 12.4266 11.0891 12.2176C11.4974 12.0087 11.9652 11.9465 12.414 12.0415C12.8627 12.1364 13.2652 12.3827 13.554 12.7391C13.8427 13.0955 14.0002 13.5403 14 13.999C14.0005 14.4612 13.8408 14.9094 13.5481 15.2672C13.2555 15.625 12.8479 15.8704 12.3947 15.9617C11.9415 16.0529 11.4708 15.9843 11.0624 15.7676C10.6541 15.5509 10.3335 15.1994 10.155 14.773ZM9.13003 16.003C7.95096 15.5795 6.88008 14.9007 5.99403 14.015C5.44617 14.0787 4.9408 14.3415 4.57393 14.7533C4.20707 15.1652 4.00426 15.6974 4.00403 16.249V17.169C4.00403 17.741 4.18203 18.299 4.51403 18.765C6.05603 20.929 8.58003 22 12 22C15.42 22 17.945 20.928 19.49 18.765C19.8236 18.2985 20.0029 17.7394 20.003 17.166V16.248C20.003 15.6516 19.7663 15.0796 19.3447 14.6577C18.9232 14.2358 18.3514 13.9985 17.755 13.998H15.5C15.5002 14.7428 15.2627 15.4683 14.8221 16.0689C14.3816 16.6695 13.7609 17.1139 13.0504 17.3374C12.3399 17.5609 11.5766 17.5519 10.8715 17.3118C10.1664 17.0716 9.55635 16.6138 9.13003 16.003ZM16 7.99998C16 7.41541 15.8719 6.83794 15.6247 6.30822C15.3774 5.77851 15.0171 5.30942 14.569 4.93398C14.1531 4.58605 13.6708 4.32632 13.1513 4.17058C12.6319 4.01484 12.0863 3.96634 11.5475 4.02803C11.0088 4.08971 10.4882 4.2603 10.0174 4.52941C9.54664 4.79853 9.1355 5.16056 8.80898 5.5935C8.48246 6.02644 8.24738 6.52125 8.11802 7.04786C7.98866 7.57447 7.96773 8.12189 8.0565 8.65684C8.14526 9.19179 8.34187 9.70311 8.63438 10.1597C8.92688 10.6163 9.30918 11.0087 9.75803 11.313C10.3871 10.7879 11.1806 10.5002 12 10.5C12.853 10.5 13.635 10.805 14.243 11.313C14.7843 10.9464 15.2275 10.4527 15.5338 9.87514C15.8401 9.29757 16.0002 8.65374 16 7.99998Z" fill="#023E8A"/>
</svg>
