<svg width="24" height="24" viewBox="0 0 24 24" fill="none" xmlns="http://www.w3.org/2000/svg">
<path d="M16.5 20.5C13.76 22.0015 11.5 22 8.5 21C5.462 19.987 3.5 16.5 3.5 14C3.5 12.628 5.557 11.814 6.2645 11.575C6.33259 11.5522 6.39187 11.5088 6.43408 11.4507C6.4763 11.3926 6.49934 11.3228 6.5 11.251V7.5C6.5 7.27019 6.54526 7.04262 6.63321 6.8303C6.72116 6.61798 6.85006 6.42507 7.01256 6.26256C7.17507 6.10006 7.36798 5.97116 7.5803 5.88321C7.79262 5.79526 8.02019 5.75 8.25 5.75C8.47981 5.75 8.70738 5.79526 8.9197 5.88321C9.13202 5.97116 9.32493 6.10006 9.48744 6.26256C9.64994 6.42507 9.77884 6.61798 9.86679 6.8303C9.95473 7.04262 10 7.27019 10 7.5V6.25C10 5.78587 10.1844 5.34075 10.5126 5.01256C10.8408 4.68437 11.2859 4.5 11.75 4.5C12.2141 4.5 12.6592 4.68437 12.9874 5.01256C13.3156 5.34075 13.5 5.78587 13.5 6.25V7.5C13.5 7.03587 13.6844 6.59075 14.0126 6.26256C14.3408 5.93437 14.7859 5.75 15.25 5.75C15.7141 5.75 16.1592 5.93437 16.4874 6.26256C16.8156 6.59075 17 7.03587 17 7.5V3.75C17 3.28587 17.1844 2.84075 17.5126 2.51256C17.8408 2.18437 18.2859 2 18.75 2C19.2141 2 19.6592 2.18437 19.9874 2.51256C20.3156 2.84075 20.5 3.28587 20.5 3.75V14.116C20.5 15.352 20.204 16.58 19.481 17.583C18.746 18.6025 17.6785 19.854 16.5 20.5Z" fill="#023E8A" stroke="#023E8A" stroke-width="2" stroke-linecap="round" stroke-linejoin="round"/>
</svg>
