<svg width="24" height="24" viewBox="0 0 24 24" fill="none" xmlns="http://www.w3.org/2000/svg">
<g clip-path="url(#clip0_49_8170)">
<path fill-rule="evenodd" clip-rule="evenodd" d="M22.8739 6.77839C22.6447 6.86062 22.3969 6.87607 22.1593 6.82296C21.9217 6.76986 21.704 6.65036 21.5316 6.47839L20.5853 5.53039L13.3905 12.7252C13.2711 12.8447 13.1293 12.9395 12.9733 13.0042C12.8172 13.0688 12.65 13.1021 12.4811 13.1021C12.3121 13.1021 12.1449 13.0688 11.9888 13.0042C11.8328 12.9395 11.691 12.8447 11.5716 12.7252L8.82705 9.98067L2.28877 16.519C2.17011 16.6417 2.02819 16.7396 1.8713 16.8069C1.7144 16.8742 1.54567 16.9096 1.37496 16.911C1.20424 16.9124 1.03496 16.8798 0.876977 16.8151C0.718999 16.7503 0.575492 16.6548 0.45483 16.534C0.334169 16.4132 0.238768 16.2697 0.174196 16.1116C0.109624 15.9536 0.0771724 15.7843 0.0787359 15.6135C0.0802993 15.4428 0.115846 15.2741 0.183302 15.1173C0.250758 14.9605 0.348772 14.8186 0.471626 14.7001L7.91505 7.25153C8.03445 7.13205 8.17623 7.03728 8.33227 6.97261C8.48831 6.90795 8.65557 6.87466 8.82448 6.87466C8.99339 6.87466 9.16065 6.90795 9.31669 6.97261C9.47274 7.03728 9.61451 7.13205 9.73391 7.25153L12.4802 9.99782L18.7665 3.71153L17.8202 2.76525C17.6479 2.59314 17.528 2.37563 17.4745 2.13803C17.421 1.90044 17.436 1.65253 17.5179 1.42317C17.5998 1.19381 17.7452 0.992427 17.9371 0.842465C18.129 0.692504 18.3596 0.600132 18.6019 0.576102C20.1671 0.421817 21.0671 0.421817 22.5739 0.576102C22.868 0.606509 23.1426 0.737334 23.3515 0.946541C23.5604 1.15575 23.6908 1.43055 23.7208 1.72467C23.8768 3.22982 23.8751 4.13153 23.7208 5.69496C23.6967 5.9372 23.6043 6.16761 23.4544 6.3594C23.3044 6.5512 23.1032 6.69649 22.8739 6.77839ZM20.0916 9.36353C20.2859 9.17517 20.5346 9.0529 20.8024 9.01412C21.0702 8.97534 21.3433 9.02202 21.5831 9.14753L23.2493 10.0218C23.4649 10.1353 23.6439 10.3077 23.7653 10.5189C23.8867 10.7302 23.9455 10.9715 23.9351 11.215L23.4619 22.5087C23.4482 22.8404 23.3067 23.1539 23.067 23.3836C22.8274 23.6134 22.5082 23.7415 22.1762 23.7412H18.7956C18.682 23.7412 18.573 23.6961 18.4926 23.6157C18.4122 23.5353 18.3671 23.4263 18.3671 23.3127V11.2167C18.3669 11.1591 18.3784 11.1021 18.4008 11.0491C18.4232 10.9961 18.456 10.9482 18.4973 10.9081L20.0916 9.36353ZM16.2242 23.3127C16.2242 23.4263 16.179 23.5353 16.0987 23.6157C16.0183 23.6961 15.9093 23.7412 15.7956 23.7412H9.36705C9.25339 23.7412 9.14438 23.6961 9.06401 23.6157C8.98364 23.5353 8.93848 23.4263 8.93848 23.3127V13.3458C8.93848 13.3115 8.9642 13.2841 8.99848 13.2875C9.27791 13.3012 9.5522 13.4075 9.77848 13.6047L12.5985 16.0801C12.6793 16.1513 12.784 16.1894 12.8917 16.1868C12.9994 16.1843 13.1022 16.1413 13.1796 16.0664L15.4973 13.8172C15.5578 13.7586 15.6343 13.7191 15.7171 13.7037C15.8 13.6882 15.8855 13.6976 15.9631 13.7305C16.0407 13.7634 16.1068 13.8185 16.1532 13.8888C16.1997 13.9591 16.2244 14.0416 16.2242 14.1258V23.3127ZM6.0602 15.6618L0.728768 21.1064C0.49281 21.3466 0.360475 21.6697 0.360197 22.0064V22.4555C0.360197 23.1652 0.936197 23.7412 1.64591 23.7412H6.36705C6.48072 23.7412 6.58973 23.6961 6.6701 23.6157C6.75047 23.5353 6.79563 23.4263 6.79563 23.3127V15.9618C6.79579 15.8765 6.7705 15.7931 6.72298 15.7223C6.67547 15.6514 6.60791 15.5964 6.52893 15.5642C6.44995 15.532 6.36316 15.524 6.27966 15.5414C6.19615 15.5588 6.11974 15.6007 6.0602 15.6618Z" fill="#023E8A"/>
</g>
<defs>
<clipPath id="clip0_49_8170">
<rect width="24" height="24" fill="white"/>
</clipPath>
</defs>
</svg>
